<svg width="15" height="13" viewBox="0 0 15 13" fill="none" xmlns="http://www.w3.org/2000/svg">
<path d="M14.7338 12.0839L11.0518 8.66596C11.9793 7.61146 12.435 6.26646 12.3246 4.90895C12.2142 3.55144 11.5462 2.28518 10.4586 1.37187C9.37107 0.458562 7.94706 -0.0319821 6.48093 0.00161888C5.01479 0.0352199 3.6186 0.590399 2.58091 1.55241C1.54321 2.51443 0.943334 3.80975 0.905251 5.17066C0.867167 6.53158 1.39379 7.85405 2.37628 8.86478C3.35877 9.87551 4.72203 10.4972 6.18431 10.6014C7.64658 10.7057 9.0961 10.2844 10.2333 9.42474L13.9153 12.8427C13.9691 12.8925 14.0329 12.9321 14.1031 12.9591C14.1733 12.9861 14.2486 13 14.3246 13C14.4006 13 14.4758 12.9861 14.5461 12.9591C14.6163 12.9321 14.6801 12.8925 14.7338 12.8427C14.7876 12.7928 14.8302 12.7335 14.8593 12.6684C14.8884 12.6032 14.9033 12.5333 14.9033 12.4628C14.9033 12.3922 14.8884 12.3224 14.8593 12.2572C14.8302 12.192 14.7876 12.1328 14.7338 12.0829V12.0839ZM2.08754 5.32128C2.08775 4.48714 2.3544 3.67179 2.85379 2.97832C3.35318 2.28485 4.06288 1.74441 4.89314 1.42533C5.7234 1.10625 6.63694 1.02287 7.51826 1.18572C8.39957 1.34857 9.20907 1.75034 9.84441 2.34024C10.4797 2.93014 10.9124 3.68166 11.0876 4.49979C11.2628 5.31792 11.1728 6.16591 10.8289 6.93653C10.4849 7.70716 9.90258 8.36582 9.1554 8.82922C8.40822 9.29263 7.5298 9.53997 6.63119 9.53997C5.4263 9.53893 4.27109 9.0941 3.4192 8.30314C2.56731 7.51218 2.08837 6.43974 2.08754 5.32128Z" fill="white"/>
</svg>
