<svg width="238" height="136" viewBox="0 0 238 136" fill="none" xmlns="http://www.w3.org/2000/svg">
<rect width="238" height="135" transform="translate(0 0.03125)" fill="black" fill-opacity="0.01"/>
<rect x="51.9141" y="56.5312" width="134.172" height="36" rx="18" fill="white" fill-opacity="0.01"/>
<path d="M76.1761 79.7842C78.637 79.7842 80.1546 78.5469 80.1546 76.5918V76.585C80.1546 75.0469 79.2454 74.2129 77.1604 73.7822L76.1145 73.5703C74.9524 73.3311 74.4739 72.9482 74.4739 72.3057V72.2988C74.4739 71.5605 75.1507 71.0957 76.1692 71.0889C77.2083 71.0889 77.8919 71.5811 78.0081 72.2852L78.0218 72.3672H79.9632L79.9563 72.2783C79.8264 70.6309 78.4729 69.4141 76.1692 69.4141C73.9817 69.4141 72.4095 70.624 72.4095 72.4561V72.4629C72.4095 73.96 73.2913 74.917 75.3421 75.334L76.3811 75.5459C77.6048 75.7988 78.0901 76.1611 78.0901 76.8105V76.8174C78.0901 77.5762 77.3313 78.1025 76.2307 78.1025C75.0755 78.1025 74.2757 77.6035 74.2005 76.8652L74.1936 76.7969H72.2044L72.2112 76.9062C72.3274 78.6562 73.8177 79.7842 76.1761 79.7842ZM84.8114 79.5586C85.1942 79.5586 85.5634 79.5176 85.8095 79.4697V77.9863C85.6181 78.0068 85.4813 78.0205 85.2216 78.0205C84.5448 78.0205 84.2577 77.7197 84.2577 77.043V73.5088H85.8095V72.0049H84.2577V70.207H82.2411V72.0049H81.079V73.5088H82.2411V77.501C82.2411 78.9639 82.9794 79.5586 84.8114 79.5586ZM87.2466 79.5312H89.2427V75.3203C89.2427 74.2539 89.9605 73.6045 91.0952 73.6045C91.4029 73.6045 91.7105 73.6523 92.0113 73.7207V71.9775C91.813 71.9229 91.5327 71.8818 91.2661 71.8818C90.2886 71.8818 89.605 72.3604 89.3657 73.1738H89.2427V72.0049H87.2466V79.5312ZM96.2511 79.6885C98.4523 79.6885 99.423 78.417 99.6554 77.4736L99.6691 77.4053H97.8097L97.7892 77.4463C97.6525 77.7334 97.1671 78.1982 96.2921 78.1982C95.2326 78.1982 94.5695 77.4805 94.549 76.2432H99.7306V75.6211C99.7306 73.3447 98.3634 71.8408 96.1691 71.8408C93.9748 71.8408 92.5734 73.3789 92.5734 75.7715V75.7783C92.5734 78.1914 93.9611 79.6885 96.2511 79.6885ZM96.2033 73.3379C97.0714 73.3379 97.6935 73.8984 97.8166 74.9922H94.5695C94.6925 73.9258 95.3351 73.3379 96.2033 73.3379ZM103.191 79.6475C104.176 79.6475 104.969 79.2305 105.351 78.5332H105.474V79.5312H107.443V74.3906C107.443 72.7842 106.315 71.8408 104.319 71.8408C102.426 71.8408 101.181 72.7158 101.024 74.0352L101.017 74.0967H102.863L102.877 74.0693C103.034 73.625 103.492 73.3721 104.21 73.3721C105.03 73.3721 105.474 73.7412 105.474 74.3906V75.0127L103.656 75.1221C101.783 75.2314 100.737 76.0244 100.737 77.3779V77.3916C100.737 78.7588 101.756 79.6475 103.191 79.6475ZM102.685 77.2686V77.2549C102.685 76.708 103.102 76.3867 103.957 76.332L105.474 76.2363V76.79C105.474 77.583 104.784 78.1914 103.861 78.1914C103.171 78.1914 102.685 77.8428 102.685 77.2686ZM109.174 79.5312H111.17V74.9922C111.17 74.1309 111.717 73.4951 112.496 73.4951C113.276 73.4951 113.734 73.9668 113.734 74.7734V79.5312H115.73V74.9033C115.73 74.0898 116.249 73.4951 117.056 73.4951C117.89 73.4951 118.3 73.9531 118.3 74.8623V79.5312H120.296V74.3633C120.296 72.8115 119.36 71.8408 117.863 71.8408C116.81 71.8408 115.935 72.3945 115.593 73.2285H115.47C115.162 72.3604 114.404 71.8408 113.378 71.8408C112.394 71.8408 111.615 72.333 111.293 73.1807H111.17V72.0049H109.174V79.5312ZM125.392 79.5312H127.388V75.1768C127.388 74.1582 127.949 73.4951 128.872 73.4951C129.815 73.4951 130.253 74.0557 130.253 75.1152V79.5312H132.249V74.6641C132.249 72.8662 131.346 71.8408 129.672 71.8408C128.598 71.8408 127.853 72.3535 127.511 73.167H127.388V72.0049H125.392V79.5312ZM137.302 79.6885C139.619 79.6885 141.014 78.2256 141.014 75.7715V75.7578C141.014 73.3242 139.599 71.8408 137.302 71.8408C135.005 71.8408 133.59 73.3311 133.59 75.7578V75.7715C133.59 78.2188 134.985 79.6885 137.302 79.6885ZM137.302 78.123C136.236 78.123 135.634 77.2549 135.634 75.7715V75.7578C135.634 74.2881 136.242 73.4062 137.302 73.4062C138.355 73.4062 138.97 74.2881 138.97 75.7578V75.7715C138.97 77.2549 138.362 78.123 137.302 78.123ZM143.531 79.5312H145.623L146.956 74.2812H147.079L148.426 79.5312H150.545L152.548 72.0049H150.572L149.451 77.4531H149.328L148.002 72.0049H146.101L144.782 77.4531H144.659L143.538 72.0049H141.521L143.531 79.5312Z" fill="#1D1D1F" fill-opacity="0.01"/>
</svg>
